<svg width="14" height="10" viewBox="0 0 14 10" fill="none" xmlns="http://www.w3.org/2000/svg">
<path d="M7 0C3.91208 0 1.25071 1.82031 0.0281607 4.44714C-0.0093869 4.52674 -0.0093869 4.61986 0.0281607 4.70096C1.25071 7.32778 3.9121 9.1481 7 9.1481C10.0879 9.1481 12.7493 7.32779 13.9718 4.70096C14.0094 4.62136 14.0094 4.52824 13.9718 4.44714C12.7493 1.82031 10.0879 0 7 0ZM7 7.73032C5.25629 7.73032 3.8445 6.31701 3.8445 4.5748C3.8445 2.83109 5.25779 1.4193 7 1.4193C8.74371 1.4193 10.1555 2.83259 10.1555 4.5748C10.1555 6.31701 8.74221 7.73032 7 7.73032Z" fill="#7A8B94"/>
<path d="M7.00053 6.6651C8.11618 6.6651 9.02059 5.76069 9.02059 4.64505C9.02059 3.52941 8.11618 2.625 7.00053 2.625C5.88488 2.625 4.98047 3.52941 4.98047 4.64505C4.98047 5.76069 5.88488 6.6651 7.00053 6.6651Z" fill="#7A8B94"/>
</svg>
