<svg width="32" height="32" viewBox="0 0 32 32" fill="none" xmlns="http://www.w3.org/2000/svg">
<path d="M16.0518 28.2342C22.7804 28.2342 28.2121 22.7568 28.1837 15.9999C28.1553 9.24311 22.6776 3.76562 15.949 3.76562C9.22029 3.76562 3.78864 9.24311 3.81702 15.9999C3.84541 22.7568 9.32309 28.2342 16.0518 28.2342Z" fill="#D23347"/>
<mask id="mask0_464_140572" style="mask-type:alpha" maskUnits="userSpaceOnUse" x="3" y="3" width="26" height="26">
<path d="M16.0508 28.2342C22.7795 28.2342 28.2111 22.7568 28.1827 15.9999C28.1543 9.24311 22.6767 3.76562 15.948 3.76562C9.21931 3.76562 3.78766 9.24311 3.81605 15.9999C3.84444 22.7568 9.32211 28.2342 16.0508 28.2342Z" fill="white"/>
</mask>
<g mask="url(#mask0_464_140572)">
<path d="M16.623 25.9589C21.6906 25.9589 25.7987 21.8508 25.7987 16.7832C25.7987 11.7155 21.6906 7.60742 16.623 7.60742C11.5554 7.60742 7.44727 11.7155 7.44727 16.7832C7.44727 21.8508 11.5554 25.9589 16.623 25.9589Z" fill="white" fill-opacity="0.1"/>
</g>
<path d="M5.09444 1.88262L2.82324 4.92578L3.98943 5.78589L6.26063 2.74273L5.09444 1.88262Z" fill="white"/>
<path d="M21.3849 0.940413L25.1572 1.48438L24.9488 2.91295L21.1765 2.36899L21.3849 0.940413Z" fill="white"/>
<path fill-rule="evenodd" clip-rule="evenodd" d="M2.97212 28.9995L5.85442 29.1163L5.91101 27.7369L4.31722 27.6723L4.24189 25.4226L1.41731 25.4121L1.41211 26.7927L2.89842 26.7982L2.97212 28.9995Z" fill="white"/>
<path fill-rule="evenodd" clip-rule="evenodd" d="M24.9721 28.9995L27.8544 29.1163L27.911 27.7369L26.3172 27.6723L26.2419 25.4226L23.4173 25.4121L23.4121 26.7927L24.8984 26.7982L24.9721 28.9995Z" fill="white"/>
<g clip-path="url(#clip0_464_140572)">
<path d="M19.2938 15.3594H12.7058C12.186 15.3594 11.7646 15.7807 11.7646 16.3005V19.5945C11.7646 20.1143 12.186 20.5356 12.7058 20.5356H19.2938C19.8135 20.5356 20.2349 20.1143 20.2349 19.5945V16.3005C20.2349 15.7807 19.8135 15.3594 19.2938 15.3594Z" stroke="white" stroke-width="2" stroke-linecap="round" stroke-linejoin="round"/>
<path d="M13.6475 15.3601V13.4778C13.6475 12.8538 13.8953 12.2554 14.3366 11.8141C14.7778 11.3729 15.3763 11.125 16.0003 11.125C16.6243 11.125 17.2228 11.3729 17.664 11.8141C18.1053 12.2554 18.3532 12.8538 18.3532 13.4778V15.3601" stroke="white" stroke-width="2" stroke-linecap="round" stroke-linejoin="round"/>
</g>
<defs>
<clipPath id="clip0_464_140572">
<rect width="11.2937" height="11.2937" fill="white" transform="translate(10.3535 10.1836)"/>
</clipPath>
</defs>
</svg>
