<svg width="68" height="68" viewBox="0 0 68 68" fill="none" xmlns="http://www.w3.org/2000/svg">
<path d="M34.11 59.9978C48.4084 59.9978 59.9507 48.3581 59.8904 33.9999C59.83 19.6416 48.19 8.00195 33.8915 8.00195C19.5931 8.00195 8.05085 19.6416 8.11118 33.9999C8.1715 48.3581 19.8116 59.9978 34.11 59.9978Z" fill="#FF4058" fill-opacity="0.1"/>
<mask id="mask0_464_141009" style="mask-type:alpha" maskUnits="userSpaceOnUse" x="8" y="8" width="52" height="52">
<path d="M34.108 59.9958C48.4065 59.9958 59.9487 48.3561 59.8884 33.9979C59.8281 19.6397 48.188 8 33.8896 8C19.5912 8 8.0489 19.6397 8.10922 33.9979C8.16955 48.3561 19.8096 59.9958 34.108 59.9958Z" fill="#FF4058"/>
</mask>
<g mask="url(#mask0_464_141009)">
<path d="M18.3226 42.409C29.0913 42.409 37.8211 33.6792 37.8211 22.9105C37.8211 12.1419 29.0913 3.41211 18.3226 3.41211C7.55396 3.41211 -1.17578 12.1419 -1.17578 22.9105C-1.17578 33.6792 7.55396 42.409 18.3226 42.409Z" fill="#FF4058" fill-opacity="0.1"/>
</g>
<path d="M10.8263 4.00009L6 10.4668L8.47815 12.2945L13.3044 5.82782L10.8263 4.00009Z" fill="#FF4058"/>
<path d="M45.4429 2.00033L53.459 3.15625L53.016 6.19197L44.9999 5.03605L45.4429 2.00033Z" fill="#FF4058"/>
<path fill-rule="evenodd" clip-rule="evenodd" d="M6.31503 61.6231L12.4399 61.8715L12.5602 58.9402L9.17337 58.8029L9.01328 54.0224L3.01106 54L3 56.9337L6.15841 56.9455L6.31503 61.6231Z" fill="#FF4058" fill-opacity="0.1"/>
<g clip-path="url(#clip0_464_141009)">
<path d="M41.0003 32.6406H27.0009C25.8964 32.6406 25.001 33.536 25.001 34.6405V41.6403C25.001 42.7448 25.8964 43.6402 27.0009 43.6402H41.0003C42.1048 43.6402 43.0002 42.7448 43.0002 41.6403V34.6405C43.0002 33.536 42.1048 32.6406 41.0003 32.6406Z" stroke="#FF4058" stroke-width="2.84773" stroke-linecap="round" stroke-linejoin="round"/>
<path d="M29.001 32.6403V28.6404C29.001 27.3144 29.5277 26.0427 30.4654 25.105C31.403 24.1674 32.6747 23.6406 34.0008 23.6406C35.3268 23.6406 36.5985 24.1674 37.5362 25.105C38.4738 26.0427 39.0006 27.3144 39.0006 28.6404V32.6403" stroke="#FF4058" stroke-width="2.84773" stroke-linecap="round" stroke-linejoin="round"/>
</g>
<defs>
<clipPath id="clip0_464_141009">
<rect width="23.999" height="23.999" fill="white" transform="translate(22.001 21.6406)"/>
</clipPath>
</defs>
</svg>
