<svg width="82" height="82" viewBox="0 0 82 82" fill="none" xmlns="http://www.w3.org/2000/svg">
<g clip-path="url(#clip0)">
<g clip-path="url(#clip1)">
<path d="M27.5455 36.6807L33.0827 27.0898L28.7694 24.5995C27.4772 23.8535 25.9752 23.6461 24.5399 24.0154C23.0876 24.385 21.884 25.3022 21.1411 26.5891C19.6145 29.2333 20.5525 32.6431 23.2321 34.1903L27.5455 36.6807Z" fill="#FED066"/>
<path d="M23.2324 34.1904C20.5528 32.6432 19.6148 29.2333 21.1414 26.5891L30.3145 31.8852L27.5459 36.6808L23.2324 34.1904Z" fill="#FED066"/>
<path d="M47.755 53.0728L57.3838 36.3953L43.306 16.7729L23.7227 50.6921L47.755 53.0728Z" fill="#FED066"/>
<path d="M23.722 50.6923L33.5136 33.7326L52.5688 44.734L47.7544 53.0728L23.722 50.6923Z" fill="#FED066"/>
<path d="M25.5829 54.8597L47.8451 16.3005L38.2452 10.7582L15.9831 49.3173L25.5829 54.8597Z" fill="#FD715C"/>
<path d="M25.5831 54.8598L36.7142 35.5803L27.1144 30.038L15.9832 49.3175L25.5831 54.8598Z" fill="#FD715C"/>
<path d="M67.9982 58.1319C69.4227 57.7502 70.6084 56.8431 71.3419 55.5726C72.0849 54.2857 72.2729 52.7832 71.8714 51.3422C71.4736 49.9145 70.5429 48.7174 69.2507 47.9714L64.9374 45.4811L59.4002 55.072L63.7135 57.5623C65.0055 58.3082 66.5076 58.5157 67.943 58.1464C67.9614 58.1416 67.98 58.1367 67.9982 58.1319Z" fill="#344A5D"/>
<path d="M59.4002 55.072L62.1688 50.2766L71.3418 55.5727C70.6083 56.8433 69.4226 57.7504 67.9983 58.132C67.9801 58.1369 67.9615 58.1417 67.943 58.1466C66.5076 58.5159 65.0055 58.3083 63.7135 57.5624L59.4002 55.072Z" fill="#344A5D"/>
<path d="M49.2854 50.447L40.4824 65.6943L50.0595 71.2236L58.8628 55.9765L49.2854 50.447Z" fill="#344A5D"/>
<path d="M25.4082 12.5269L21.8392 13.4832L23.6272 20.1564L27.1963 19.2L25.4082 12.5269Z" fill="#FFC97E"/>
<path d="M16.8135 31.9585L10.1403 33.7466L11.0966 37.3156L17.7698 35.5276L16.8135 31.9585Z" fill="#FFC97E"/>
<path d="M18.1494 22.728L12.8687 19.6792L11.0215 22.8787L16.3022 25.9275L18.1494 22.728Z" fill="#FFC97E"/>
<path d="M17.2266 24.3276L11.9459 21.2788L11.0223 22.8786L16.303 25.9274L17.2266 24.3276Z" fill="#FFC97E"/>
<path d="M60.2265 61.0305L70.5107 43.2176L56.4559 35.1029L46.1715 52.9159L60.2265 61.0305Z" fill="#FD715C"/>
<path d="M60.2265 61.0305L65.3686 52.1241L51.3138 44.0094L46.1717 52.9158L60.2265 61.0305Z" fill="#FD715C"/>
</g>
<path d="M3.90299 53.6903C4.07334 53.6903 4.22732 53.5876 4.29281 53.4301C5.095 51.4934 5.68703 50.9018 7.62504 50.0996C7.78211 50.0346 7.88477 49.8806 7.88477 49.7107C7.88477 49.5404 7.78211 49.3868 7.62504 49.3213C5.68703 48.5191 5.095 47.9276 4.29281 45.9909C4.22732 45.8334 4.07334 45.7307 3.90299 45.7307C3.73264 45.7307 3.57911 45.8334 3.51362 45.9909C2.71098 47.9276 2.11896 48.5191 0.181391 49.3213C0.0238724 49.3868 -0.0787802 49.5404 -0.0787802 49.7107C-0.0787802 49.8811 0.0238724 50.0346 0.181391 50.0996C2.11896 50.9018 2.71098 51.4934 3.51362 53.4301C3.57911 53.5876 3.73264 53.6903 3.90299 53.6903Z" fill="#EE9595"/>
<path d="M72.4203 16.0018C72.5606 16.0018 72.6871 15.9173 72.7407 15.7881C73.4 14.1965 73.8862 13.7107 75.4787 13.0514C75.6079 12.9979 75.6924 12.8718 75.6924 12.7315C75.6924 12.5917 75.6079 12.4656 75.4787 12.412C73.8862 11.7528 73.4 11.2665 72.7407 9.67538C72.6867 9.54618 72.5606 9.46167 72.4203 9.46167C72.2805 9.46167 72.154 9.54618 72.1009 9.67538C71.4411 11.2665 70.9549 11.7528 69.3624 12.412C69.2328 12.4656 69.1487 12.5917 69.1487 12.7315C69.1487 12.8718 69.2328 12.9979 69.3624 13.0514C70.9549 13.7107 71.4411 14.1965 72.1009 15.7881C72.154 15.9173 72.2805 16.0018 72.4203 16.0018Z" fill="#FEDA94"/>
<circle r="2.36538" transform="matrix(-1 0 0 1 79.6346 37.0578)" fill="#BEEBB7"/>
<circle r="2.36538" transform="matrix(-1 0 0 1 29.3656 75.3654)" fill="#BEEBB7"/>
<circle r="3.15385" transform="matrix(-1 0 0 1 6.15377 7.15385)" fill="#A6E4E8"/>
</g>
<defs>
<clipPath id="clip0">
<rect width="82" height="82" fill="white" transform="matrix(-1 0 0 1 82 0)"/>
</clipPath>
<clipPath id="clip1">
<rect width="63.0769" height="63.0769" fill="white" transform="matrix(-0.965926 0.258819 0.258819 0.965926 63.3013 2.37354)"/>
</clipPath>
</defs>
</svg>
