<svg width="24" height="24" viewBox="0 0 24 24" fill="none" xmlns="http://www.w3.org/2000/svg">
<path d="M18.0873 9.35547C19.7438 9.35547 21.0867 8.01232 21.0867 6.35547C21.0867 4.69861 19.7438 3.35547 18.0873 3.35547C16.4308 3.35547 15.0879 4.69861 15.0879 6.35547C15.0879 8.01232 16.4308 9.35547 18.0873 9.35547Z" fill="#4B4B4B" stroke="#4B4B4B" stroke-linecap="round" stroke-linejoin="round"/>
<path d="M6.08922 15.6553C7.74574 15.6553 9.0886 14.3121 9.0886 12.6553C9.0886 10.9984 7.74574 9.65527 6.08922 9.65527C4.43271 9.65527 3.08984 10.9984 3.08984 12.6553C3.08984 14.3121 4.43271 15.6553 6.08922 15.6553Z" fill="#4B4B4B" stroke="#4B4B4B" stroke-linecap="round" stroke-linejoin="round"/>
<path d="M18.0873 21.9551C19.7438 21.9551 21.0867 20.6119 21.0867 18.9551C21.0867 17.2982 19.7438 15.9551 18.0873 15.9551C16.4308 15.9551 15.0879 17.2982 15.0879 18.9551C15.0879 20.6119 16.4308 21.9551 18.0873 21.9551Z" fill="#4B4B4B" stroke="#4B4B4B" stroke-linecap="round" stroke-linejoin="round"/>
<path d="M8.67871 14.7148L14.6787 17.7148" stroke="#4B4B4B" stroke-linecap="round" stroke-linejoin="round"/>
<path d="M14.6787 7.41406L8.67871 10.4141" stroke="#4B4B4B" stroke-linecap="round" stroke-linejoin="round"/>
</svg>
