<svg width="46" height="48" viewBox="0 0 46 48" fill="none" xmlns="http://www.w3.org/2000/svg">
<path d="M41.4225 3.46582H4.56803C2.44725 3.46582 0.728027 5.18505 0.728027 7.30582V44.1603C0.728027 46.2811 2.44725 48.0003 4.56803 48.0003H41.4225C43.5433 48.0003 45.2625 46.2811 45.2625 44.1603V7.30582C45.2625 5.18505 43.5433 3.46582 41.4225 3.46582Z" fill="#97D0FF"/>
<path d="M39.5274 3.46582H4.56803C2.44725 3.46582 0.728027 5.18505 0.728027 7.30582V44.1603C0.728027 46.2811 2.44725 48.0003 4.56803 48.0003H39.5274C41.6482 48.0003 43.3674 46.2811 43.3674 44.1603V7.30582C43.3674 5.18505 41.6482 3.46582 39.5274 3.46582Z" fill="#B5DBFF"/>
<path d="M0.728027 7.30583C0.728027 5.18506 2.44725 3.46582 4.56803 3.46582H41.4225C43.5433 3.46582 45.2625 5.18505 45.2625 7.30582V41.4187C45.2625 43.2743 43.7582 44.7787 41.9025 44.7787H4.08803C2.23235 44.7787 0.728027 43.2743 0.728027 41.4187V7.30583Z" fill="#D5E8FE"/>
<path d="M0.728027 7.30583C0.728027 5.18506 2.44725 3.46582 4.56803 3.46582H41.4474C42.5078 3.46582 43.3674 4.32543 43.3674 5.38582V40.4587C43.3674 42.8446 41.4333 44.7787 39.0474 44.7787H4.08803C2.23235 44.7787 0.728027 43.2743 0.728027 41.4187V7.30583Z" fill="#EDF5FF"/>
<path d="M0.728027 7.30582C0.728027 5.18505 2.44725 3.46582 4.56803 3.46582H41.4225C43.5433 3.46582 45.2625 5.18505 45.2625 7.30582V13.9836H0.728027V7.30582Z" fill="#E3374E"/>
<path d="M0.728027 7.30582C0.728027 5.18505 2.44725 3.46582 4.56803 3.46582H39.0474C41.4333 3.46582 43.3674 5.39995 43.3674 7.78582V13.9836H0.728027V7.30582Z" fill="#FF435B"/>
<path d="M43.3674 10.2881H0.728027V11.7094H43.3674V10.2881Z" fill="#E3374E"/>
<path d="M16.3151 5.55078H8.26095C7.86846 5.55078 7.55029 5.86895 7.55029 6.26144C7.55029 6.65392 7.86846 6.97209 8.26095 6.97209H16.3151C16.7075 6.97209 17.0257 6.65392 17.0257 6.26144C17.0257 5.86895 16.7075 5.55078 16.3151 5.55078Z" fill="#E3374E"/>
<path d="M38.1085 5.55078H30.0544C29.6619 5.55078 29.3438 5.86895 29.3438 6.26144C29.3438 6.65392 29.6619 6.97209 30.0544 6.97209H38.1085C38.501 6.97209 38.8192 6.65392 38.8192 6.26144C38.8192 5.86895 38.501 5.55078 38.1085 5.55078Z" fill="#E3374E"/>
<path d="M13.8989 1.80761C13.8989 0.891814 13.1565 0.149414 12.2407 0.149414C11.3249 0.149414 10.5825 0.891814 10.5825 1.80761V6.54532C10.5825 7.46112 11.3249 8.20352 12.2407 8.20352C13.1565 8.20352 13.8989 7.46112 13.8989 6.54532V1.80761Z" fill="#596C76"/>
<path d="M35.6924 1.80761C35.6924 0.891814 34.95 0.149414 34.0342 0.149414C33.1184 0.149414 32.376 0.891814 32.376 1.80761V6.54532C32.376 7.46112 33.1184 8.20352 34.0342 8.20352C34.95 8.20352 35.6924 7.46112 35.6924 6.54532V1.80761Z" fill="#596C76"/>
</svg>
