<svg width="24" height="24" viewBox="0 0 24 24" fill="none" xmlns="http://www.w3.org/2000/svg">
<path d="M19.4657 2.46094H13.7721C13.1121 2.46094 12.4792 2.72311 12.0125 3.1898L0.631637 14.5707C0.307684 14.8946 0.307684 15.4199 0.631637 15.7438L8.25665 23.3688C8.58061 23.6927 9.10579 23.6927 9.4297 23.3688L20.8105 11.9879C21.2772 11.5213 21.5394 10.8883 21.5394 10.2283V4.53469C21.5394 3.38944 20.611 2.46094 19.4657 2.46094ZM19.1012 6.65878C18.6153 7.14469 17.8275 7.14469 17.3416 6.65878C16.8557 6.17287 16.8557 5.38509 17.3416 4.89919C17.8275 4.41328 18.6154 4.41328 19.1012 4.89919C19.5871 5.38509 19.5872 6.17283 19.1012 6.65878Z" fill="#FFDC64"/>
<path d="M1.8765 15.8155L13.2573 4.43466C13.724 3.96802 14.357 3.7058 15.0169 3.7058H20.7105C20.9572 3.7058 21.1904 3.75628 21.4099 3.83531C21.122 3.03591 20.3643 2.46094 19.4656 2.46094H13.7721C13.1121 2.46094 12.4792 2.72311 12.0125 3.1898L0.631637 14.5707C0.307684 14.8946 0.307684 15.4198 0.631637 15.7437L1.8765 16.9886C1.5525 16.6647 1.5525 16.1394 1.8765 15.8155Z" fill="#FFC850"/>
<path d="M24 1.63478C24.0018 1.19654 23.8327 0.785121 23.5238 0.476214C23.2149 0.167355 22.8027 -0.00158258 22.3652 1.11743e-05C21.9283 0.0018393 21.5169 0.173542 21.2069 0.48348C21.0757 0.61473 20.8369 0.89823 20.7063 1.05559C20.5692 1.22082 20.5919 1.46598 20.7571 1.60309C20.9223 1.74025 21.1674 1.71756 21.3046 1.55232C21.5092 1.30595 21.6782 1.11193 21.7568 1.03337C21.9207 0.869449 22.1379 0.778605 22.3685 0.777621C22.3697 0.777621 22.3709 0.777621 22.3722 0.777621C22.6001 0.777621 22.8137 0.865746 22.9739 1.02601C23.135 1.18712 23.2233 1.40214 23.2223 1.63145C23.2213 1.86193 23.1305 2.07915 22.9665 2.24317C22.8198 2.38993 22.3153 2.7901 21.5925 3.295C21.165 2.56403 20.3721 2.0716 19.4658 2.0716H13.7723C13.0037 2.0716 12.2812 2.3709 11.7376 2.91432L0.356859 14.2953C0.12675 14.5254 0 14.8314 0 15.1568C0 15.4822 0.12675 15.7882 0.356859 16.0182L7.98187 23.6432C8.21944 23.8808 8.53134 23.9995 8.84334 23.9995C9.15534 23.9995 9.46734 23.8807 9.70481 23.6432L21.0857 12.2624C21.6291 11.7189 21.9284 10.9964 21.9284 10.2278V4.53423C21.9284 4.36618 21.9114 4.20212 21.8791 4.04345C22.7018 3.47734 23.3058 3.00376 23.5164 2.7931C23.8265 2.48317 23.9982 2.07179 24 1.63478ZM21.1508 4.53423V10.2278C21.1508 10.7887 20.9324 11.316 20.5358 11.7125L9.15497 23.0934C8.98322 23.2652 8.70356 23.2652 8.53177 23.0934L0.90675 15.4684C0.823547 15.3852 0.777656 15.2745 0.777656 15.1568C0.777656 15.039 0.8235 14.9284 0.90675 14.8452L12.2876 3.46435C12.6842 3.06779 13.2114 2.8494 13.7723 2.8494H19.4658C20.1052 2.8494 20.6625 3.20739 20.9479 3.73342C20.4886 4.03754 19.9744 4.36093 19.4288 4.67893C19.4118 4.66028 19.3944 4.64181 19.3763 4.62376C18.7396 3.98701 17.7036 3.98701 17.0668 4.62376C16.4301 5.26051 16.4301 6.29654 17.0668 6.93329C17.3852 7.25167 17.8034 7.41081 18.2216 7.41081C18.6397 7.41081 19.058 7.25167 19.3763 6.93329C19.8014 6.50828 19.9422 5.90551 19.7999 5.36218C20.2744 5.08595 20.7301 4.80362 21.1506 4.53048C21.1507 4.53175 21.1508 4.53301 21.1508 4.53423ZM17.8743 5.95323C17.9426 6.08903 18.0797 6.1674 18.222 6.1674C18.2807 6.1674 18.3404 6.15404 18.3965 6.12582C18.6244 6.01117 18.8515 5.89192 19.0763 5.76976C19.0786 5.99171 18.9956 6.21437 18.8266 6.38336C18.493 6.71687 17.9504 6.71687 17.6168 6.38336C17.2833 6.04979 17.2833 5.50717 17.6168 5.1736C17.7836 5.00682 18.0027 4.92348 18.2217 4.92348C18.3952 4.92348 18.5681 4.97664 18.7156 5.08112C18.4955 5.20075 18.2722 5.31789 18.047 5.43118C17.8551 5.52765 17.7778 5.76142 17.8743 5.95323Z" fill="black"/>
<path d="M11.5856 7.91992C11.3709 7.91992 11.1968 8.09397 11.1968 8.30875V16.5203C11.1968 16.735 11.3709 16.9091 11.5856 16.9091C11.8003 16.9091 11.9744 16.735 11.9744 16.5203V8.30875C11.9744 8.09392 11.8003 7.91992 11.5856 7.91992Z" fill="black"/>
<path d="M7.49807 11.2598C6.86132 11.8965 6.86132 12.9326 7.49807 13.5693C7.81649 13.8877 8.23462 14.0469 8.65284 14.0468C9.07096 14.0468 9.48923 13.8876 9.80755 13.5693C10.116 13.2608 10.2859 12.8508 10.2859 12.4146C10.2859 11.9783 10.116 11.5683 9.80755 11.2598C9.1708 10.623 8.13473 10.6231 7.49807 11.2598ZM9.25766 13.0194C8.9241 13.353 8.38148 13.3529 8.04796 13.0194C7.71445 12.6858 7.71445 12.1432 8.04796 11.8096C8.21474 11.6429 8.43379 11.5595 8.65284 11.5595C8.87188 11.5595 9.09093 11.6429 9.25771 11.8096C9.41929 11.9712 9.50826 12.186 9.50826 12.4145C9.50821 12.643 9.41924 12.8578 9.25766 13.0194Z" fill="black"/>
<path d="M13.3638 11.2598C12.727 11.8966 12.727 12.9326 13.3638 13.5693C13.6822 13.8877 14.1003 14.0468 14.5186 14.0468C14.9367 14.0468 15.3549 13.8877 15.6733 13.5693C16.31 12.9326 16.31 11.8966 15.6733 11.2598C15.0365 10.623 14.0004 10.6231 13.3638 11.2598ZM15.1233 13.0194C14.7898 13.353 14.2471 13.3529 13.9136 13.0194C13.5801 12.6858 13.5801 12.1432 13.9136 11.8096C14.0804 11.6429 14.2995 11.5595 14.5185 11.5595C14.7376 11.5595 14.9566 11.6429 15.1234 11.8096C15.4569 12.1432 15.4569 12.6858 15.1233 13.0194Z" fill="black"/>
</svg>
